<svg width="20" height="20" viewBox="0 0 20 20" fill="none" xmlns="http://www.w3.org/2000/svg">
<path d="M17.5 15.625H15.625C15.4592 15.625 15.3003 15.5592 15.1831 15.4419C15.0658 15.3247 15 15.1658 15 15C15 14.8342 15.0658 14.6753 15.1831 14.5581C15.3003 14.4408 15.4592 14.375 15.625 14.375H17.5C17.6658 14.375 17.8247 14.3092 17.9419 14.1919C18.0592 14.0747 18.125 13.9158 18.125 13.75V6.25C18.125 6.08424 18.0592 5.92527 17.9419 5.80806C17.8247 5.69085 17.6658 5.625 17.5 5.625H2.5C2.33424 5.625 2.17527 5.69085 2.05806 5.80806C1.94085 5.92527 1.875 6.08424 1.875 6.25V13.75C1.875 13.9158 1.94085 14.0747 2.05806 14.1919C2.17527 14.3092 2.33424 14.375 2.5 14.375H4.375C4.54076 14.375 4.69973 14.4408 4.81694 14.5581C4.93415 14.6753 5 14.8342 5 15C5 15.1658 4.93415 15.3247 4.81694 15.4419C4.69973 15.5592 4.54076 15.625 4.375 15.625H2.5C2.00272 15.625 1.52581 15.4275 1.17417 15.0758C0.822544 14.7242 0.625 14.2473 0.625 13.75V6.25C0.625 5.75272 0.822544 5.27581 1.17417 4.92417C1.52581 4.57254 2.00272 4.375 2.5 4.375H17.5C17.9973 4.375 18.4742 4.57254 18.8258 4.92417C19.1775 5.27581 19.375 5.75272 19.375 6.25V13.75C19.375 14.2473 19.1775 14.7242 18.8258 15.0758C18.4742 15.4275 17.9973 15.625 17.5 15.625V15.625Z" fill="#BCBCBC"/>
<path d="M15.625 19.375H4.375C4.20924 19.375 4.05027 19.3092 3.93306 19.1919C3.81585 19.0747 3.75 18.9158 3.75 18.75V12.5C3.75 12.3342 3.81585 12.1753 3.93306 12.0581C4.05027 11.9408 4.20924 11.875 4.375 11.875H15.625C15.7908 11.875 15.9497 11.9408 16.0669 12.0581C16.1842 12.1753 16.25 12.3342 16.25 12.5V18.75C16.25 18.9158 16.1842 19.0747 16.0669 19.1919C15.9497 19.3092 15.7908 19.375 15.625 19.375ZM5 18.125H15V13.125H5V18.125Z" fill="#BCBCBC"/>
<path d="M15.625 5.625C15.4592 5.625 15.3003 5.55915 15.1831 5.44194C15.0658 5.32473 15 5.16576 15 5V1.875H5V5C5 5.16576 4.93415 5.32473 4.81694 5.44194C4.69973 5.55915 4.54076 5.625 4.375 5.625C4.20924 5.625 4.05027 5.55915 3.93306 5.44194C3.81585 5.32473 3.75 5.16576 3.75 5V1.25C3.75 1.08424 3.81585 0.925268 3.93306 0.808058C4.05027 0.690848 4.20924 0.625 4.375 0.625H15.625C15.7908 0.625 15.9497 0.690848 16.0669 0.808058C16.1842 0.925268 16.25 1.08424 16.25 1.25V5C16.25 5.16576 16.1842 5.32473 16.0669 5.44194C15.9497 5.55915 15.7908 5.625 15.625 5.625Z" fill="#BCBCBC"/>
<path d="M16.25 6.875H15V8.125H16.25V6.875Z" fill="#BCBCBC"/>
<path d="M13.75 6.875H11.25V8.125H13.75V6.875Z" fill="#BCBCBC"/>
</svg>
