<svg width="220" height="64" viewBox="0 0 220 64" fill="none" xmlns="http://www.w3.org/2000/svg">
<path d="M125.667 29.546V31.9993C125.664 37.7498 123.802 43.3451 120.358 47.9508C116.915 52.5566 112.076 55.9259 106.561 57.5564C101.047 59.1868 95.1529 58.991 89.7588 56.9982C84.3646 55.0054 79.7592 51.3222 76.6294 46.4982C73.4995 41.6741 72.0129 35.9675 72.3913 30.2295C72.7697 24.4915 74.9927 19.0295 78.7289 14.6582C82.4651 10.2868 87.5143 7.24033 93.1233 5.97304C98.7324 4.70574 104.601 5.28554 109.854 7.62598" stroke="white" stroke-width="2" stroke-linecap="round" stroke-linejoin="round"/>
<path d="M125.667 10.667L99 37.3603L91 29.3603" stroke="white" stroke-width="2" stroke-linecap="round" stroke-linejoin="round"/>
<path d="M42 5V13" stroke="#CFDFFE" stroke-width="2.1" stroke-linecap="round" stroke-linejoin="round"/>
<path d="M38 9L46 9" stroke="#CFDFFE" stroke-width="2.1" stroke-linecap="round" stroke-linejoin="round"/>
<path d="M6 32V40" stroke="#AAFFEC" stroke-width="2.1" stroke-linecap="round" stroke-linejoin="round"/>
<path d="M2 36L10 36" stroke="#AAFFEC" stroke-width="2.1" stroke-linecap="round" stroke-linejoin="round"/>
<path d="M182 24V32" stroke="#F7B955" stroke-width="2.1" stroke-linecap="round" stroke-linejoin="round"/>
<path d="M178 28L186 28" stroke="#F7B955" stroke-width="2.1" stroke-linecap="round" stroke-linejoin="round"/>
<circle cx="217" cy="52" r="3" fill="#DDD9FE"/>
<circle cx="155" cy="58" r="3" fill="#DDD9FE"/>
<circle cx="41" cy="58" r="3" fill="#F7B955"/>
<circle cx="147.5" cy="4.5" r="4.5" fill="#D2E9FF"/>
</svg>
